<svg xmlns="http://www.w3.org/2000/svg" width="462" height="125" viewBox="0 0 462 125" fill="none"><g clip-path="url(#clip0_2220_1325)"><path fill-rule="evenodd" clip-rule="evenodd" d="M74.3201 21.4302L20.5801 102.05L74.3201 87.7702L128.07 102.03L74.3201 21.4302Z" fill="#274185"></path><path fill-rule="evenodd" clip-rule="evenodd" d="M74.3403 26.8501C73.9303 27.4701 50.0303 63.3601 50.0303 63.3601L74.3403 56.4401L98.7303 63.3801L74.3403 26.8501Z" fill="white"></path><path fill-rule="evenodd" clip-rule="evenodd" d="M74.3401 32.5498L57.0801 58.5998L74.3401 52.9298L91.8201 58.6098L74.3401 32.5498Z" fill="#274185"></path><path fill-rule="evenodd" clip-rule="evenodd" d="M76.62 74.5502V60.2402L95.5 65.6302C96.33 65.8002 96.95 66.6402 96.95 66.6402L113.72 91.6602L74.33 81.1502L35.21 91.6102L51.77 66.8902C52.74 65.6402 54.15 65.3102 54.15 65.3102L72.05 60.2202V74.5302H76.61" fill="white"></path><path d="M128.11 40.2798H168.31L167.51 45.9598C167.27 47.6698 166.41 48.3998 164.58 48.3998H153.22V83.2298H143.2V48.3998H131.9C130.07 48.3998 129.21 47.6698 128.97 45.9598L128.12 40.2798" fill="#274185"></path><path d="M172.78 83.24V40.29H182.8V57.21H203.87V40.29H213.89V83.24H203.87V65.34H182.8V83.24H172.78Z" fill="#274185"></path><path d="M247.13 40.2798C257.03 40.2798 262.04 44.4998 262.04 53.1098V54.7598C262.16 62.5798 257.58 66.5498 249.21 66.7998H248.23V67.3498C250.06 67.3498 250.98 67.8398 252.08 69.1798L263.99 83.2298H253.54C251.71 83.2298 250.67 82.8598 249.63 81.5198L239.37 69.1198C238.45 68.0198 238.21 67.1698 238.21 64.8398V60.1998H246.95C250.56 60.1998 251.96 58.7298 251.96 55.6198V52.9298C251.96 49.7498 250.43 48.4098 246.95 48.4098H232.47V83.2398H222.45V40.2898H247.13" fill="#274185"></path><path d="M278.91 40.29H268.89V83.24H278.91V40.29Z" fill="#274185"></path><path d="M282.7 40.2798H290.77C292.97 40.2798 293.7 40.7698 294.44 42.5398L304.64 67.3398L306.29 73.2098H306.66L308.37 67.3398L318.57 42.5398C319.3 40.7698 320.04 40.2798 322.24 40.2798H330.06L312.46 80.4798C311.42 82.9198 310.51 83.5398 307.88 83.5398H304.83C302.2 83.5398 301.35 82.9298 300.25 80.4798L282.71 40.2798" fill="#274185"></path><path d="M371.29 40.28L370.49 45.96C370.25 47.67 369.39 48.4 367.56 48.4H343.85V57.38H368.72L367.99 62.7C367.75 64.41 366.89 65.14 365.12 65.14H343.86V71.31C343.86 74.12 344.96 75.1 348.02 75.1H368.67C370.5 75.1 371.36 75.83 371.6 77.54L372.45 83.22H345.02C337.44 83.22 333.78 79.55 333.78 72.04V40.27H371.29" fill="#274185"></path><path d="M379.3 83.24V40.29H387.98C392.93 40.29 394.82 41.02 396.84 45L410.83 72.74C411.26 73.47 411.44 73.72 412.11 73.72H412.54L411.5 61.74V40.3H421.4V83.25H412.72C407.71 83.25 405.88 82.52 403.86 78.54L389.87 50.8C389.5 50.07 389.26 49.82 388.59 49.82H388.16L389.2 61.79V83.23H379.3" fill="#274185"></path><path d="M439.91 40.29H429.89V83.24H439.91V40.29Z" fill="#274185"></path></g><defs><clipPath id="clip0_2220_1325"><rect width="461.39" height="124.96" fill="white"></rect></clipPath></defs></svg>