<svg width="72" height="72" viewBox="0 0 72 72" fill="none" xmlns="http://www.w3.org/2000/svg">
<path d="M30.0298 13.4059C30.3386 13.6355 30.5041 13.8085 30.7329 14.109C30.8134 14.2136 30.8939 14.3182 30.9768 14.426C31.5629 15.2125 32.1103 16.0244 32.6504 16.8428C33.0549 17.4548 33.4659 18.0621 33.8805 18.6672C33.9615 18.7857 33.9615 18.7857 34.0441 18.9064C34.373 19.3871 34.373 19.3871 34.7028 19.867C34.8581 20.0926 35.0128 20.3187 35.1675 20.5448C35.258 20.6765 35.3485 20.8081 35.4417 20.9438C35.6548 21.2809 35.6548 21.2809 35.7954 21.7028C35.8882 21.7028 35.981 21.7028 36.0767 21.7028C36.1141 21.6238 36.1515 21.5448 36.1901 21.4634C36.3709 21.1152 36.5755 20.7969 36.7935 20.4707C36.8819 20.3381 36.9703 20.2056 37.0614 20.069C37.2048 19.8553 37.2048 19.8553 37.3511 19.6373C37.4991 19.4162 37.4991 19.4162 37.65 19.1906C37.9687 18.7151 38.2881 18.24 38.6079 17.7653C38.6897 17.6438 38.6897 17.6438 38.7732 17.5199C39.0989 17.0367 39.4251 16.5538 39.7521 16.0715C39.9059 15.8446 40.0595 15.6175 40.213 15.3905C40.3077 15.2513 40.4023 15.1121 40.4998 14.9687C40.6241 14.7855 40.6241 14.7855 40.7509 14.5986C41.4624 13.5958 41.4624 13.5958 41.8423 13.4059C42.8136 13.3037 43.6408 13.6328 44.5521 13.942C44.8127 14.0284 45.0733 14.1148 45.334 14.2012C45.6113 14.2933 45.8883 14.3862 46.1653 14.4793C46.7432 14.6736 47.3218 14.8658 47.9006 15.0577C47.9975 15.0898 48.0945 15.1219 48.1944 15.1551C48.3911 15.2203 48.5878 15.2854 48.7845 15.3506C49.0817 15.4492 49.3788 15.5479 49.676 15.6467C51.3565 16.2049 53.0419 16.7473 54.7296 17.2836C56.7747 17.9338 58.8195 18.5849 60.8576 19.2565C61.0564 19.3218 61.2553 19.3868 61.4543 19.4514C61.7211 19.5382 61.9875 19.6264 62.2538 19.7148C62.4739 19.7872 62.4739 19.7872 62.6984 19.8611C63.361 20.1312 63.361 20.1312 63.6392 20.4371C63.8208 21.0117 63.8772 21.3347 63.6386 21.8916C63.4195 22.2654 63.1831 22.6201 62.936 22.9761C62.8476 23.1085 62.7593 23.2409 62.6682 23.3773C62.3853 23.7997 62.0983 24.2189 61.811 24.6383C61.622 24.9192 61.4332 25.2003 61.2447 25.4815C60.8948 26.0021 60.5437 26.5218 60.19 27.0399C60.1108 27.1568 60.0316 27.2737 59.95 27.3942C59.7762 27.643 59.5959 27.8873 59.411 28.1279C59.3182 28.2506 59.2254 28.3732 59.1298 28.4995C59.0442 28.6088 58.9585 28.7181 58.8702 28.8306C58.6757 29.1541 58.6757 29.1541 58.8118 29.5163C58.9731 29.8123 59.1347 30.0955 59.3242 30.3741C59.3887 30.4697 59.4532 30.5652 59.5197 30.6637C59.5893 30.7654 59.659 30.8671 59.7308 30.9719C59.8036 31.0793 59.8764 31.1867 59.9514 31.2973C60.1067 31.5262 60.2624 31.755 60.4183 31.9835C60.6604 32.3386 60.9013 32.6944 61.1419 33.0504C61.8024 34.0261 62.4636 35.0002 63.1536 35.9553C63.2828 36.136 63.2828 36.136 63.4146 36.3203C63.564 36.5277 63.7158 36.7334 63.8706 36.9368C64.2929 37.525 64.4218 37.9825 64.4354 38.7062C64.2899 39.1648 64.04 39.304 63.6392 39.5621C63.2551 39.7303 62.8624 39.8594 62.4631 39.9862C62.296 40.0412 62.296 40.0412 62.1256 40.0973C61.7721 40.2133 61.4181 40.3272 61.064 40.4411C60.8232 40.5197 60.5825 40.5984 60.3419 40.6773C59.754 40.8696 59.1655 41.0601 58.5767 41.2496C58.5761 41.3693 58.5756 41.489 58.5751 41.6123C58.5698 42.742 58.5618 43.8717 58.5508 45.0013C58.5452 45.5821 58.5407 46.1627 58.5385 46.7435C58.5364 47.3043 58.5316 47.865 58.5249 48.4258C58.5228 48.6394 58.5217 48.853 58.5215 49.0666C58.5212 49.3666 58.5174 49.6663 58.5128 49.9663C58.5116 50.1368 58.5103 50.3073 58.509 50.4829C58.3942 51.2223 58.0728 51.6324 57.5023 52.1024C56.905 52.4268 56.3075 52.6181 55.6571 52.8092C55.5209 52.8505 55.3846 52.8917 55.2443 52.9342C54.793 53.0705 54.3412 53.2048 53.8893 53.339C53.5701 53.4349 53.2509 53.531 52.9318 53.6271C52.0875 53.8811 51.2428 54.1334 50.3979 54.3853C49.5609 54.6353 48.7244 54.887 47.8878 55.1386C46.4274 55.5774 44.9661 56.013 43.5042 56.4469C42.6077 56.7135 41.7124 56.9837 40.8181 57.2579C40.2845 57.4212 39.7502 57.5826 39.2159 57.7436C38.9715 57.8177 38.7274 57.8928 38.4836 57.9688C38.1509 58.0725 37.8175 58.1729 37.4836 58.2727C37.3423 58.3181 37.3423 58.3181 37.1982 58.3644C35.9323 58.7333 34.7299 58.3811 33.5062 58.0014C33.3004 57.9393 33.3004 57.9393 33.0904 57.8759C32.6387 57.7392 32.1876 57.6007 31.7365 57.4622C31.4168 57.3651 31.0971 57.2681 30.7773 57.1712C29.934 56.9154 29.0912 56.6581 28.2484 56.4004C27.2449 56.0938 26.2409 55.789 25.237 55.484C24.4229 55.2366 23.6089 54.9889 22.7951 54.7404C21.3436 54.2974 19.8914 53.858 18.4341 53.4344C18.3111 53.3986 18.1881 53.3627 18.0613 53.3257C17.4997 53.1618 16.9378 52.9992 16.375 52.8395C16.1808 52.7831 15.9866 52.7266 15.7925 52.6701C15.6279 52.6232 15.4633 52.5762 15.2937 52.5278C14.4243 52.2027 13.8663 51.7841 13.436 50.9528C13.3684 50.4776 13.3684 50.4776 13.3722 49.9534C13.3721 49.8572 13.372 49.7611 13.3719 49.662C13.3723 49.347 13.3767 49.0321 13.3811 48.7171C13.3821 48.4976 13.3829 48.2781 13.3835 48.0586C13.3857 47.4829 13.3912 46.9073 13.3974 46.3316C13.4032 45.7434 13.4057 45.1552 13.4086 44.567C13.4146 43.4143 13.4242 42.2617 13.436 41.109C13.2843 41.0889 13.1326 41.0689 12.9762 41.0482C12.4219 40.9639 11.9137 40.8134 11.386 40.6311C11.2885 40.598 11.191 40.5648 11.0906 40.5307C10.8862 40.4609 10.682 40.3907 10.478 40.3201C10.1659 40.2123 9.85315 40.1069 9.54028 40.0016C9.34101 39.9333 9.14179 39.8648 8.94262 39.7962C8.84946 39.7649 8.75629 39.7337 8.6603 39.7016C8.18493 39.5348 7.84438 39.3969 7.52978 38.9996C7.38795 38.37 7.45122 37.7773 7.79246 37.2279C7.91497 37.0581 8.04058 36.8906 8.16864 36.7249C8.31148 36.5288 8.45418 36.3326 8.59676 36.1363C8.67416 36.0317 8.75156 35.9271 8.83131 35.8194C9.56221 34.8204 10.2517 33.7905 10.9512 32.7694C11.1394 32.4957 11.3286 32.2226 11.5186 31.9501C11.7964 31.5515 12.0707 31.1508 12.3445 30.7495C12.4303 30.6279 12.5161 30.5063 12.6045 30.381C12.6812 30.2673 12.7579 30.1535 12.8369 30.0363C12.9053 29.9373 12.9737 29.8382 13.0442 29.7361C13.192 29.4281 13.192 29.4281 13.0464 29.0687C12.864 28.7156 12.6653 28.39 12.4429 28.0606C12.3551 27.93 12.2674 27.7993 12.177 27.6648C12.0345 27.4545 12.0345 27.4545 11.8892 27.2399C11.7914 27.0935 11.6936 26.9471 11.5928 26.7963C11.0976 26.0559 10.5978 25.3195 10.0869 24.5898C9.84978 24.2504 9.615 23.9093 9.38046 23.5681C9.26652 23.4037 9.15145 23.2401 9.03522 23.0773C8.00435 21.6323 8.00435 21.6323 8.05767 20.9162C8.25114 20.3873 8.33158 20.3005 8.79541 20.0153C9.09942 19.8947 9.40811 19.7857 9.71905 19.6843C9.81099 19.654 9.90293 19.6237 9.99766 19.5925C10.3025 19.4924 10.6077 19.3937 10.913 19.2951C11.1285 19.2247 11.3439 19.1541 11.5593 19.0835C12.0157 18.9341 12.4724 18.7853 12.9292 18.6371C13.6373 18.4074 14.3448 18.1759 15.0522 17.9442C16.9923 17.3095 18.9332 16.6779 20.8793 16.0618C21.1246 15.9838 21.3698 15.9058 21.6151 15.8278C22.0379 15.6934 22.4613 15.5614 22.8853 15.431C23.0676 15.3735 23.2498 15.3159 23.4319 15.2582C23.5816 15.2119 23.7313 15.1657 23.8856 15.118C24.2802 14.9735 24.0115 15.0555 24.5455 14.8825C25.6002 14.5408 25.1783 14.6716 25.1783 14.6716C25.0779 14.6603 25.2757 14.6825 25.1783 14.6716C26.1627 14.3903 26.8446 14.1749 27.5864 13.8981C29.1727 13.3112 29.1727 13.3112 30.0298 13.4059Z" fill="#DCE9F7"/>
<path d="M35.7956 36.7495C36.4067 36.9532 36.6054 37.424 36.9382 37.9448C37.0894 38.1766 37.2409 38.4082 37.3925 38.6397C37.4745 38.7654 37.5565 38.891 37.641 39.0205C38.1165 39.7425 38.6044 40.4561 39.0915 41.1704C39.1926 41.3188 39.2937 41.4672 39.3979 41.6201C39.5995 41.9159 39.8011 42.2117 40.0028 42.5074C40.284 42.9199 40.5645 43.3327 40.845 43.7456C41.0105 43.9888 41.176 44.2319 41.3415 44.4751C41.4171 44.5866 41.4927 44.698 41.5706 44.8129C41.6398 44.9144 41.7091 45.0159 41.7804 45.1205C41.8403 45.2086 41.9002 45.2967 41.962 45.3875C42.1306 45.6301 42.1306 45.6301 42.405 45.8901C43.2361 45.9528 43.8855 45.8256 44.6672 45.5572C44.7748 45.5218 44.8825 45.4863 44.9934 45.4498C45.3473 45.3328 45.7004 45.2135 46.0536 45.0942C46.303 45.0113 46.5525 44.9285 46.8021 44.8459C47.4594 44.6279 48.1159 44.4079 48.7724 44.1874C49.4297 43.967 50.0875 43.7483 50.7453 43.5294C51.0026 43.4438 51.26 43.3582 51.5173 43.2726C51.643 43.2307 51.7688 43.1889 51.8983 43.1458C52.2734 43.0209 52.6485 42.8958 53.0235 42.7707C54.3333 42.3339 55.6435 41.8991 56.9586 41.4786C57.0812 41.4391 57.2039 41.3997 57.3302 41.3591C58.1202 41.1089 58.1202 41.1089 58.4363 41.1089C58.4493 42.3778 58.4593 43.6466 58.4654 44.9156C58.4683 45.5048 58.4723 46.094 58.4787 46.6833C58.4848 47.2522 58.4882 47.8212 58.4896 48.3902C58.4907 48.6069 58.4927 48.8237 58.4957 49.0404C58.4998 49.3447 58.5004 49.6489 58.5001 49.9532C58.5014 50.1262 58.5026 50.2992 58.5039 50.4775C58.3978 51.223 58.0761 51.6297 57.5025 52.1022C56.9052 52.4267 56.3077 52.6179 55.6574 52.8091C55.453 52.8709 55.453 52.8709 55.2445 52.9341C54.7932 53.0704 54.3414 53.2046 53.8896 53.3389C53.5704 53.4348 53.2512 53.5308 52.932 53.627C52.0878 53.881 51.243 54.1332 50.3982 54.3852C49.5611 54.6351 48.7246 54.8869 47.888 55.1384C46.4276 55.5773 44.9663 56.0129 43.5045 56.4468C42.6079 56.7134 41.7126 56.9835 40.8183 57.2577C40.2847 57.421 39.7505 57.5824 39.2161 57.7434C38.9717 57.8176 38.7276 57.8927 38.4838 57.9687C38.1512 58.0724 37.8177 58.1728 37.4839 58.2726C37.3897 58.3028 37.2955 58.3331 37.1984 58.3643C35.9325 58.7332 34.7302 58.3809 33.5065 58.0013C33.3006 57.9391 33.3006 57.9391 33.0906 57.8757C32.6389 57.7391 32.1878 57.6005 31.7367 57.462C31.417 57.3649 31.0973 57.268 30.7776 57.1711C29.9342 56.9153 29.0914 56.6579 28.2486 56.4002C27.2452 56.0937 26.2412 55.7889 25.2372 55.4838C24.4231 55.2364 23.6091 54.9887 22.7953 54.7402C21.3438 54.2973 19.8916 53.8579 18.4343 53.4343C18.2498 53.3805 18.2498 53.3805 18.0616 53.3255C17.4999 53.1617 16.938 52.9991 16.3752 52.8393C16.181 52.7829 15.9869 52.7265 15.7927 52.67C15.6281 52.623 15.4635 52.576 15.2939 52.5276C14.4242 52.2025 13.8672 51.7837 13.4363 50.9526C13.3686 50.4828 13.3686 50.4828 13.3724 49.9661C13.3723 49.8714 13.3722 49.7766 13.3722 49.679C13.3725 49.3685 13.3769 49.0582 13.3813 48.7477C13.3824 48.5313 13.3832 48.315 13.3837 48.0987C13.3859 47.5313 13.3914 46.964 13.3976 46.3967C13.4034 45.817 13.406 45.2372 13.4088 44.6575C13.4148 43.5214 13.4244 42.3855 13.4363 41.2495C14.0483 41.3265 14.6162 41.4313 15.2025 41.6224C15.424 41.6938 15.424 41.6938 15.6499 41.7667C15.808 41.8187 15.9661 41.8706 16.129 41.9241C16.2963 41.9783 16.4637 42.0325 16.6361 42.0884C16.995 42.2048 17.3537 42.3214 17.7124 42.4386C18.2728 42.6216 18.8336 42.8033 19.3945 42.9847C20.1464 43.228 20.8981 43.4715 21.6497 43.7155C21.7858 43.7596 21.7858 43.7596 21.9246 43.8047C22.3501 43.9428 22.7755 44.0808 23.2009 44.2189C24.033 44.4889 24.8654 44.7578 25.6984 45.0248C25.942 45.1032 26.1855 45.182 26.4288 45.2613C26.7626 45.37 27.0968 45.4773 27.4312 45.5842C27.5266 45.6157 27.622 45.6472 27.7204 45.6796C28.2709 45.8535 28.7499 45.9461 29.3269 45.8901C29.9542 45.3951 30.3568 44.7351 30.7859 44.0708C30.9349 43.8436 31.0842 43.6166 31.2336 43.3896C31.312 43.2702 31.3905 43.1507 31.4713 43.0276C31.8956 42.3866 32.3296 41.7522 32.7634 41.1177C32.8512 40.9891 32.9391 40.8606 33.0296 40.7281C33.2067 40.469 33.3839 40.2099 33.5611 39.9508C33.8285 39.5596 34.0956 39.1681 34.3625 38.7765C34.5296 38.5315 34.6968 38.2865 34.864 38.0415C34.9418 37.9272 35.0197 37.8129 35.0999 37.6952C35.1711 37.591 35.2422 37.4869 35.3155 37.3796C35.378 37.2881 35.4404 37.1966 35.5047 37.1023C35.655 36.8901 35.655 36.8901 35.7956 36.7495Z" fill="#BFD2EA"/>
<path d="M58.2953 29.1558C58.8873 29.7063 59.3259 30.2996 59.7719 30.9718C59.8441 31.0792 59.9163 31.1865 59.9907 31.2972C60.2233 31.6434 60.4547 31.9903 60.686 32.3374C61.0019 32.8103 61.3182 33.2831 61.6346 33.7557C61.7115 33.8707 61.7883 33.9856 61.8675 34.104C62.2861 34.7285 62.7115 35.3459 63.1519 35.9552C63.2382 36.0756 63.3246 36.1961 63.4136 36.3202C63.5635 36.5274 63.7157 36.7331 63.8706 36.9366C64.2928 37.5249 64.4218 37.9824 64.4353 38.706C64.29 39.1642 64.0393 39.3043 63.6391 39.562C63.2629 39.7258 62.8783 39.8497 62.4866 39.9713C62.3758 40.0069 62.265 40.0426 62.1508 40.0793C61.7977 40.1925 61.444 40.3035 61.0903 40.4146C60.8559 40.4896 60.6215 40.5647 60.3871 40.64C59.4906 40.9264 58.5958 41.2088 57.6863 41.4517C56.8625 41.674 56.0539 41.9342 55.2439 42.202C55.0895 42.2527 54.9351 42.3034 54.776 42.3557C54.4464 42.4639 54.1169 42.5724 53.7875 42.6809C53.2713 42.8509 52.755 43.0202 52.2385 43.1894C50.7715 43.67 49.3048 44.1516 47.8405 44.6406C47.3233 44.8132 46.8057 44.9845 46.288 45.1557C46.0508 45.2345 45.8139 45.3139 45.5771 45.3939C45.2513 45.5041 44.9248 45.6122 44.5981 45.7198C44.5055 45.7518 44.4128 45.7838 44.3173 45.8167C43.6489 46.0337 43.0989 46.0867 42.4047 46.0308C42.0414 45.707 41.829 45.445 41.561 45.0464C41.4683 44.9106 41.3757 44.7748 41.2803 44.6349C41.0476 44.2902 40.8185 43.9433 40.5903 43.5956C40.0619 42.7926 39.5187 41.9997 38.977 41.2056C38.0009 39.7732 37.0342 38.3349 36.0766 36.8901C35.6118 37.0451 35.5698 37.0987 35.3185 37.4894C35.2547 37.5872 35.1908 37.6849 35.125 37.7857C35.0562 37.8933 34.9874 38.0009 34.9164 38.1118C34.7645 38.3447 34.6123 38.5774 34.46 38.81C34.3797 38.9331 34.2994 39.0561 34.2167 39.1829C33.7985 39.8184 33.3687 40.446 32.9389 41.0737C32.3797 41.8907 31.8217 42.7084 31.2695 43.5303C31.1738 43.6723 31.078 43.8142 30.9794 43.9605C30.7951 44.2339 30.6114 44.5078 30.4284 44.782C30.3454 44.9048 30.2624 45.0276 30.1769 45.1541C30.1042 45.2625 30.0315 45.3709 29.9565 45.4827C29.7485 45.7495 29.7485 45.7495 29.3266 46.0308C28.2535 46.0876 27.221 45.7018 26.2213 45.3611C26.0594 45.3074 25.8976 45.2536 25.7308 45.1982C25.294 45.053 24.8576 44.9065 24.4214 44.7596C23.685 44.5123 22.9473 44.2689 22.2099 44.0248C22.0234 43.9631 21.8369 43.9013 21.6504 43.8394C19.9118 43.2628 18.166 42.7114 16.4155 42.1724C15.9106 42.0163 15.4058 41.8601 14.901 41.7038C14.7799 41.6663 14.6587 41.6288 14.5339 41.5902C13.2973 41.2071 12.0614 40.8216 10.8282 40.4278C10.6011 40.3555 10.3739 40.2838 10.1466 40.2127C9.83631 40.1155 9.52672 40.0165 9.21722 39.9169C9.0432 39.8616 8.86918 39.8064 8.68988 39.7495C8.19261 39.5455 7.88137 39.4095 7.52972 38.9995C7.40568 38.4662 7.42416 37.9747 7.6452 37.4704C7.8092 37.2081 7.98783 36.9667 8.17792 36.7226C8.32131 36.5268 8.46419 36.3307 8.60666 36.1342C8.68312 36.0299 8.75959 35.9255 8.83837 35.818C9.26562 35.2188 9.6574 34.5966 10.0544 33.9771C10.2241 33.7158 10.394 33.4546 10.5641 33.1935C10.8252 32.7927 11.0853 32.3914 11.3425 31.9881C11.5958 31.5915 11.853 31.1977 12.111 30.8043C12.1872 30.6829 12.2634 30.5614 12.3419 30.4364C12.6792 29.929 12.8829 29.6306 13.4564 29.3992C14.2494 29.4545 14.9495 29.6869 15.7003 29.9396C15.8691 29.9946 16.038 30.0496 16.212 30.1063C16.6735 30.2567 17.1342 30.4096 17.5947 30.5629C18.0804 30.7242 18.5669 30.883 19.0533 31.042C19.8661 31.3082 20.6783 31.5757 21.4903 31.8442C22.5807 32.2048 23.672 32.563 24.7636 32.9202C25.1415 33.0438 25.5193 33.1676 25.8972 33.2913C26.1749 33.3822 26.4526 33.4732 26.7304 33.5641C27.6224 33.8562 28.5144 34.1483 29.4062 34.4407C29.6545 34.5221 29.6545 34.5221 29.9077 34.6051C30.7497 34.8816 31.591 35.1601 32.4309 35.4428C32.8461 35.5825 33.2617 35.7207 33.6774 35.8586C33.9372 35.9455 34.1963 36.0347 34.4553 36.1239C34.6786 36.1978 34.6786 36.1978 34.9066 36.2733C35.0294 36.315 35.1523 36.3568 35.2789 36.3998C36.2737 36.5811 37.2482 36.1514 38.1799 35.8393C38.331 35.7894 38.4822 35.7396 38.6378 35.6882C38.9642 35.5805 39.2904 35.4724 39.6165 35.364C40.4023 35.1028 41.1888 34.8438 41.9753 34.5848C42.2457 34.4958 42.516 34.4066 42.7863 34.3175C44.5103 33.7494 46.2386 33.1957 47.9682 32.645C49.7365 32.082 51.5037 31.516 53.2669 30.9372C53.4935 30.8629 53.4935 30.8629 53.7247 30.7871C54.4482 30.5497 55.1714 30.3117 55.8943 30.0725C56.151 29.9881 56.4077 29.9037 56.6644 29.8193C56.7814 29.7803 56.8984 29.7414 57.0189 29.7012C57.4591 29.557 57.8289 29.437 58.2953 29.437C58.2953 29.3442 58.2953 29.2514 58.2953 29.1558Z" fill="#DAE8F6"/>
<path d="M38.4903 22.7013C38.6758 22.7617 38.8614 22.8221 39.047 22.8823C39.5493 23.0457 40.0512 23.2103 40.5531 23.3751C41.0817 23.5484 41.6106 23.7205 42.1395 23.8927C42.8044 24.1093 43.4692 24.326 44.1338 24.5432C45.7489 25.071 47.365 25.5958 48.9817 26.1186C49.2095 26.1923 49.4372 26.266 49.665 26.3396C50.1118 26.4841 50.5586 26.6286 51.0053 26.7731C51.952 27.0792 52.8986 27.3855 53.8451 27.6921C54.0319 27.7526 54.2187 27.8131 54.4056 27.8735C55.7048 28.2937 57.0011 28.7222 58.2959 29.1558C58.2959 29.2486 58.2959 29.3414 58.2959 29.437C49.2564 32.4149 49.2564 32.4149 44.7472 33.8461C43.3351 34.2947 41.9261 34.7508 40.5211 35.2213C40.2392 35.3152 39.9573 35.4091 39.6753 35.5029C39.1481 35.6783 38.6218 35.8564 38.096 36.0359C37.8605 36.1144 37.625 36.1928 37.3895 36.2711C37.2846 36.3077 37.1798 36.3443 37.0718 36.3821C35.8024 36.7975 34.7279 36.3269 33.508 35.9184C33.2475 35.8324 32.9869 35.7463 32.7264 35.6603C32.4492 35.5686 32.1722 35.4765 31.8952 35.3844C31.0208 35.0934 30.1457 34.8051 29.2706 34.5166C29.0723 34.4512 28.874 34.3858 28.6757 34.3203C26.7812 33.695 24.8825 33.0833 22.9814 32.478C22.4175 32.2983 21.8535 32.1185 21.2896 31.9386C21.153 31.8951 21.0165 31.8515 20.8758 31.8066C18.4392 31.0283 16.0084 30.232 13.5771 29.437C13.5771 29.3442 13.5771 29.2514 13.5771 29.1558C13.7546 29.0975 13.7546 29.0975 13.9356 29.0381C15.0745 28.6641 16.2133 28.29 17.3521 27.9158C17.937 27.7236 18.5218 27.5315 19.1067 27.3394C20.4616 26.8945 21.8163 26.4489 23.1706 26.0023C23.6227 25.8532 24.0748 25.7045 24.527 25.556C25.074 25.3763 25.6208 25.196 26.1675 25.0152C26.3712 24.9479 26.5749 24.8809 26.7787 24.8141C27.0586 24.7223 27.3382 24.6298 27.6177 24.537C27.7754 24.485 27.9331 24.4331 28.0956 24.3795C28.5051 24.2425 28.5051 24.2425 28.9053 23.9527C29.191 23.8855 29.479 23.8275 29.7677 23.7747C30.5492 23.6151 31.2892 23.4091 32.0419 23.1463C32.1405 23.112 32.2392 23.0777 32.3408 23.0423C32.7463 22.9004 33.1511 22.7568 33.5552 22.611C33.8558 22.5032 34.1572 22.3983 34.4589 22.2937C34.5932 22.2439 34.5932 22.2439 34.7302 22.193C36.0377 21.7451 37.2403 22.2886 38.4903 22.7013Z" fill="#B0C6E2"/>
<path d="M35.9365 37.0308C36.5422 37.3336 36.7441 37.6166 37.0879 38.1646C37.2118 38.356 37.336 38.5474 37.4603 38.7386C37.5299 38.846 37.5995 38.9534 37.6711 39.0641C38.1296 39.7636 38.603 40.4531 39.0742 41.144C39.1764 41.2941 39.2786 41.4441 39.3839 41.5987C39.5887 41.8994 39.7936 42.2 39.9986 42.5006C40.2815 42.9159 40.564 43.3316 40.8463 43.7473C41.0115 43.9899 41.1766 44.2325 41.3418 44.4751C41.4174 44.5865 41.4929 44.698 41.5708 44.8128C41.64 44.9143 41.7093 45.0159 41.7807 45.1205C41.8406 45.2086 41.9005 45.2967 41.9622 45.3875C42.1308 45.6301 42.1308 45.6301 42.4053 45.8901C43.2364 45.9528 43.8857 45.8256 44.6674 45.5572C44.7751 45.5218 44.8828 45.4863 44.9937 45.4498C45.3476 45.3328 45.7007 45.2135 46.0538 45.0942C46.3033 45.0113 46.5528 44.9285 46.8024 44.8459C47.4596 44.6279 48.1162 44.4079 48.7726 44.1874C49.4299 43.967 50.0877 43.7483 50.7455 43.5294C51.0029 43.4438 51.2602 43.3582 51.5176 43.2726C51.6433 43.2307 51.769 43.1889 51.8986 43.1458C52.2737 43.0209 52.6488 42.8958 53.0238 42.7707C54.3336 42.3339 55.6438 41.8991 56.9589 41.4786C57.0815 41.4391 57.2041 41.3997 57.3305 41.3591C58.1204 41.1089 58.1204 41.1089 58.4365 41.1089C58.4496 42.3778 58.4596 43.6466 58.4657 44.9156C58.4686 45.5048 58.4726 46.094 58.479 46.6833C58.4851 47.2522 58.4884 47.8212 58.4899 48.3902C58.4909 48.6069 58.493 48.8237 58.496 49.0404C58.5001 49.3447 58.5006 49.6489 58.5004 49.9532C58.5016 50.1262 58.5029 50.2992 58.5042 50.4775C58.3981 51.2228 58.0765 51.6294 57.5033 52.1021C56.9032 52.4279 56.3022 52.6195 55.6487 52.8113C55.5116 52.8528 55.3744 52.8943 55.2331 52.937C54.7791 53.074 54.3246 53.2089 53.8701 53.3438C53.5495 53.4401 53.229 53.5365 52.9085 53.633C52.0612 53.8877 51.2135 54.1407 50.3656 54.3934C49.5231 54.6448 48.681 54.8979 47.8388 55.1508C46.382 55.5881 44.9245 56.0233 43.4667 56.4574C42.61 56.7129 41.754 56.9706 40.8989 57.2313C40.4116 57.3798 39.9241 57.5274 39.4365 57.6749C39.2163 57.7418 38.9962 57.8092 38.7763 57.8771C38.4791 57.9688 38.1814 58.0589 37.8836 58.1486C37.72 58.1987 37.5563 58.2488 37.3877 58.3004C36.9209 58.4058 36.9209 58.4058 35.9365 58.4058C35.9365 51.352 35.9365 44.2983 35.9365 37.0308Z" fill="#9AB0CE"/>
<path d="M35.9365 21.9839C35.9365 26.7637 35.9365 31.5436 35.9365 36.4683C34.671 36.3101 34.671 36.3101 34.0467 36.1021C33.9059 36.0558 33.7651 36.0095 33.62 35.9618C33.4698 35.9112 33.3195 35.8606 33.1647 35.8085C32.9242 35.7291 32.9242 35.7291 32.6789 35.648C32.2437 35.504 31.8089 35.3592 31.3741 35.214C30.6357 34.968 29.8964 34.7246 29.1573 34.4806C28.874 34.3871 28.5907 34.2934 28.3074 34.1997C26.5446 33.6171 24.7769 33.05 23.0078 32.4868C19.8599 31.4836 16.7175 30.4638 13.5771 29.437C13.5771 29.3442 13.5771 29.2514 13.5771 29.1558C13.7546 29.0975 13.7546 29.0975 13.9356 29.038C15.0745 28.6641 16.2133 28.29 17.3521 27.9158C17.937 27.7236 18.5218 27.5315 19.1067 27.3394C20.4616 26.8945 21.8163 26.4489 23.1706 26.0023C23.6227 25.8532 24.0748 25.7045 24.527 25.556C25.074 25.3763 25.6208 25.1959 26.1675 25.0151C26.3712 24.9479 26.5749 24.8809 26.7787 24.8141C27.0586 24.7223 27.3382 24.6298 27.6177 24.537C27.7754 24.485 27.9331 24.4331 28.0956 24.3795C28.5051 24.2425 28.5051 24.2425 28.9053 23.9526C29.1901 23.8852 29.4771 23.827 29.765 23.7741C30.9765 23.5264 32.1241 23.1354 33.291 22.731C33.6043 22.623 33.9177 22.5153 34.2314 22.4084C34.4244 22.3426 34.6172 22.2761 34.8098 22.2089C35.2057 22.0734 35.5145 21.9839 35.9365 21.9839Z" fill="#9AB1CF"/>
</svg>
